# xmcd
#
# Track frame offsets:
#	150
#	15685
#	26760
#	44605
#	62425
#	77630
#	89350
#	103440
#	122067
#	136222
#	155075
#	166450
#	180057
#	194347
#	213662
#	229865
#
# Disc length: 3248 seconds
#
# Revision: 1
# Processed by: cddbd v1.5.1PL0 Copyright (c) Steve Scherf et al.
# Submitted via: audiograbber 1.83.01
#
DISCID=da0cae10
DTITLE=Kake Randelin - Jannu Huoleton
DYEAR=1991
DGENRE=
TTITLE0=Kirje kotiin
TTITLE1=Jannu huoleton
TTITLE2=Siellä kotini on
TTITLE3=Rajaton rakkaus
TTITLE4=Pakko painaa pitkää päivää
TTITLE5=Älä sano ei
TTITLE6=Kielletyt tunteet
TTITLE7=Kun mua vasten painut
TTITLE8=Bella Bella
TTITLE9=Jos lähdet mukaan
TTITLE10=Kuka viereeni jää
TTITLE11=Kerro että palaan
TTITLE12=Tuulikki on minun tyttöni
TTITLE13=Soi siellä kuumat tuulet
TTITLE14=Mulle kävi tuuri
TTITLE15=Ero
EXTD=
EXTT0=
EXTT1=
EXTT2=
EXTT3=
EXTT4=
EXTT5=
EXTT6=
EXTT7=
EXTT8=
EXTT9=
EXTT10=
EXTT11=
EXTT12=
EXTT13=
EXTT14=
EXTT15=
PLAYORDER=
